name rise34.3697peak60.0498fall86.3158.mot
datacolumns 19
datarows 30
range 12.68494700000000 12.73328200000000
endheader
time	ground_force1_vx	ground_force1_vy	ground_force1_vz	ground_force1_px	ground_force1_py	ground_force1_pz	ground_force2_vx	ground_force2_vy	ground_force2_vz	ground_force2_px	ground_force2_py	ground_force2_pz	ground_torque1_x	ground_torque1_y	ground_torque1_z	ground_torque2_x	ground_torque2_y	ground_torque2_z	
12.68494700000000	2.72724000000000	729.10828900000001	44.80580400000000	0.33619800000000	0.00000000000000	0.12537900000000	0.00000000000000	0.00000000000000	0.00000000000000	0.00000000000000	0.00000000000000	0.00000000000000	0.00000000000000	26.66302400000000	0.00000000000000	0.00000000000000	0.00000000000000	0.00000000000000	
12.68662100000000	2.44569900000000	729.81612199999995	44.75079400000000	0.33514700000000	0.00000000000000	0.12535300000000	0.00000000000000	0.00000000000000	0.00000000000000	0.00000000000000	0.00000000000000	0.00000000000000	0.00000000000000	26.61424800000000	0.00000000000000	0.00000000000000	0.00000000000000	0.00000000000000	
12.68828800000000	2.15911700000000	730.52430200000003	44.69811700000000	0.33408800000000	0.00000000000000	0.12532700000000	0.00000000000000	0.00000000000000	0.00000000000000	0.00000000000000	0.00000000000000	0.00000000000000	0.00000000000000	26.56805300000000	0.00000000000000	0.00000000000000	0.00000000000000	0.00000000000000	
12.68995400000000	1.86731500000000	731.23111400000005	44.64782200000000	0.33302100000000	0.00000000000000	0.12530100000000	0.00000000000000	0.00000000000000	0.00000000000000	0.00000000000000	0.00000000000000	0.00000000000000	0.00000000000000	26.52453000000000	0.00000000000000	0.00000000000000	0.00000000000000	0.00000000000000	
12.69161800000000	1.57011700000000	731.93490699999995	44.59996700000000	0.33194700000000	0.00000000000000	0.12527600000000	0.00000000000000	0.00000000000000	0.00000000000000	0.00000000000000	0.00000000000000	0.00000000000000	0.00000000000000	26.48377400000000	0.00000000000000	0.00000000000000	0.00000000000000	0.00000000000000	
12.69328500000000	1.26735800000000	732.63409500000000	44.55461500000000	0.33086500000000	0.00000000000000	0.12525100000000	0.00000000000000	0.00000000000000	0.00000000000000	0.00000000000000	0.00000000000000	0.00000000000000	0.00000000000000	26.44588300000000	0.00000000000000	0.00000000000000	0.00000000000000	0.00000000000000	
12.69495400000000	0.95887700000000	733.32716400000004	44.51183600000000	0.32977700000000	0.00000000000000	0.12522700000000	0.00000000000000	0.00000000000000	0.00000000000000	0.00000000000000	0.00000000000000	0.00000000000000	0.00000000000000	26.41095500000000	0.00000000000000	0.00000000000000	0.00000000000000	0.00000000000000	
12.69661900000000	0.64452200000000	734.01267600000006	44.47170500000000	0.32868100000000	0.00000000000000	0.12520300000000	0.00000000000000	0.00000000000000	0.00000000000000	0.00000000000000	0.00000000000000	0.00000000000000	0.00000000000000	26.37909200000000	0.00000000000000	0.00000000000000	0.00000000000000	0.00000000000000	
12.69828400000000	0.32415200000000	734.68927399999995	44.43430300000000	0.32757900000000	0.00000000000000	0.12518000000000	0.00000000000000	0.00000000000000	0.00000000000000	0.00000000000000	0.00000000000000	0.00000000000000	0.00000000000000	26.35039500000000	0.00000000000000	0.00000000000000	0.00000000000000	0.00000000000000	
12.69995400000000	-0.00236900000000	735.35568699999999	44.39971300000000	0.32647200000000	0.00000000000000	0.12515700000000	0.00000000000000	0.00000000000000	0.00000000000000	0.00000000000000	0.00000000000000	0.00000000000000	0.00000000000000	26.32496600000000	0.00000000000000	0.00000000000000	0.00000000000000	0.00000000000000	
12.70161900000000	-0.33516300000000	736.01073699999995	44.36802400000000	0.32535800000000	0.00000000000000	0.12513500000000	0.00000000000000	0.00000000000000	0.00000000000000	0.00000000000000	0.00000000000000	0.00000000000000	0.00000000000000	26.30290800000000	0.00000000000000	0.00000000000000	0.00000000000000	0.00000000000000	
12.70328900000000	-0.67434700000000	736.65333699999996	44.33932700000000	0.32423800000000	0.00000000000000	0.12511400000000	0.00000000000000	0.00000000000000	0.00000000000000	0.00000000000000	0.00000000000000	0.00000000000000	0.00000000000000	26.28432000000000	0.00000000000000	0.00000000000000	0.00000000000000	0.00000000000000	
12.70494800000000	-1.02002400000000	737.28250200000002	44.31371700000000	0.32311200000000	0.00000000000000	0.12509400000000	0.00000000000000	0.00000000000000	0.00000000000000	0.00000000000000	0.00000000000000	0.00000000000000	0.00000000000000	26.26930200000000	0.00000000000000	0.00000000000000	0.00000000000000	0.00000000000000	
12.70661600000000	-1.37228800000000	737.89734699999997	44.29128700000000	0.32198200000000	0.00000000000000	0.12507500000000	0.00000000000000	0.00000000000000	0.00000000000000	0.00000000000000	0.00000000000000	0.00000000000000	0.00000000000000	26.25795200000000	0.00000000000000	0.00000000000000	0.00000000000000	0.00000000000000	
12.70828700000000	-1.73122000000000	738.49709499999994	44.27213500000000	0.32084600000000	0.00000000000000	0.12505600000000	0.00000000000000	0.00000000000000	0.00000000000000	0.00000000000000	0.00000000000000	0.00000000000000	0.00000000000000	26.25036400000000	0.00000000000000	0.00000000000000	0.00000000000000	0.00000000000000	
12.70995600000000	-2.09689000000000	739.08107600000005	44.25635500000000	0.31970500000000	0.00000000000000	0.12503900000000	0.00000000000000	0.00000000000000	0.00000000000000	0.00000000000000	0.00000000000000	0.00000000000000	0.00000000000000	26.24663000000000	0.00000000000000	0.00000000000000	0.00000000000000	0.00000000000000	
12.71161900000000	-2.46935700000000	739.64873100000000	44.24404400000000	0.31855900000000	0.00000000000000	0.12502300000000	0.00000000000000	0.00000000000000	0.00000000000000	0.00000000000000	0.00000000000000	0.00000000000000	0.00000000000000	26.24683700000000	0.00000000000000	0.00000000000000	0.00000000000000	0.00000000000000	
12.71328800000000	-2.84866300000000	740.19961699999999	44.23529500000000	0.31740800000000	0.00000000000000	0.12500800000000	0.00000000000000	0.00000000000000	0.00000000000000	0.00000000000000	0.00000000000000	0.00000000000000	0.00000000000000	26.25106600000000	0.00000000000000	0.00000000000000	0.00000000000000	0.00000000000000	
12.71495000000000	-3.23484100000000	740.73340299999995	44.23020000000000	0.31625300000000	0.00000000000000	0.12499400000000	0.00000000000000	0.00000000000000	0.00000000000000	0.00000000000000	0.00000000000000	0.00000000000000	0.00000000000000	26.25939500000000	0.00000000000000	0.00000000000000	0.00000000000000	0.00000000000000	
12.71662000000000	-3.62790800000000	741.24987999999996	44.22884600000000	0.31509400000000	0.00000000000000	0.12498100000000	0.00000000000000	0.00000000000000	0.00000000000000	0.00000000000000	0.00000000000000	0.00000000000000	0.00000000000000	26.27189300000000	0.00000000000000	0.00000000000000	0.00000000000000	0.00000000000000	
12.71828500000000	-4.02786400000000	741.74895200000003	44.23132000000000	0.31393100000000	0.00000000000000	0.12497000000000	0.00000000000000	0.00000000000000	0.00000000000000	0.00000000000000	0.00000000000000	0.00000000000000	0.00000000000000	26.28862400000000	0.00000000000000	0.00000000000000	0.00000000000000	0.00000000000000	
12.71994700000000	-4.43469700000000	742.23064499999998	44.23770000000000	0.31276300000000	0.00000000000000	0.12496000000000	0.00000000000000	0.00000000000000	0.00000000000000	0.00000000000000	0.00000000000000	0.00000000000000	0.00000000000000	26.30964300000000	0.00000000000000	0.00000000000000	0.00000000000000	0.00000000000000	
12.72161400000000	-4.84837900000000	742.69510400000001	44.24806300000000	0.31159200000000	0.00000000000000	0.12495100000000	0.00000000000000	0.00000000000000	0.00000000000000	0.00000000000000	0.00000000000000	0.00000000000000	0.00000000000000	26.33499800000000	0.00000000000000	0.00000000000000	0.00000000000000	0.00000000000000	
12.72328400000000	-5.26886500000000	743.14259100000004	44.26247800000000	0.31041700000000	0.00000000000000	0.12494400000000	0.00000000000000	0.00000000000000	0.00000000000000	0.00000000000000	0.00000000000000	0.00000000000000	0.00000000000000	26.36472800000000	0.00000000000000	0.00000000000000	0.00000000000000	0.00000000000000	
12.72495200000000	-5.69609300000000	743.57348700000000	44.28100700000000	0.30923900000000	0.00000000000000	0.12493800000000	0.00000000000000	0.00000000000000	0.00000000000000	0.00000000000000	0.00000000000000	0.00000000000000	0.00000000000000	26.39886000000000	0.00000000000000	0.00000000000000	0.00000000000000	0.00000000000000	
12.72662200000000	-6.12998600000000	743.98829200000000	44.30370700000000	0.30805800000000	0.00000000000000	0.12493300000000	0.00000000000000	0.00000000000000	0.00000000000000	0.00000000000000	0.00000000000000	0.00000000000000	0.00000000000000	26.43741300000000	0.00000000000000	0.00000000000000	0.00000000000000	0.00000000000000	
12.72828400000000	-6.57044900000000	744.38761799999997	44.33062500000000	0.30687400000000	0.00000000000000	0.12493000000000	0.00000000000000	0.00000000000000	0.00000000000000	0.00000000000000	0.00000000000000	0.00000000000000	0.00000000000000	26.48039600000000	0.00000000000000	0.00000000000000	0.00000000000000	0.00000000000000	
12.72994900000000	-7.01736900000000	744.77219300000002	44.36180300000000	0.30568700000000	0.00000000000000	0.12492800000000	0.00000000000000	0.00000000000000	0.00000000000000	0.00000000000000	0.00000000000000	0.00000000000000	0.00000000000000	26.52780500000000	0.00000000000000	0.00000000000000	0.00000000000000	0.00000000000000	
12.73161400000000	-7.47061700000000	745.14285299999995	44.39727100000000	0.30449800000000	0.00000000000000	0.12492700000000	0.00000000000000	0.00000000000000	0.00000000000000	0.00000000000000	0.00000000000000	0.00000000000000	0.00000000000000	26.57962600000000	0.00000000000000	0.00000000000000	0.00000000000000	0.00000000000000	
12.73328200000000	-7.93004600000000	745.50054499999999	44.43705300000000	0.30330700000000	0.00000000000000	0.12492800000000	0.00000000000000	0.00000000000000	0.00000000000000	0.00000000000000	0.00000000000000	0.00000000000000	0.00000000000000	26.63583400000000	0.00000000000000	0.00000000000000	0.00000000000000	0.00000000000000	
